<svg xmlns="http://www.w3.org/2000/svg" version="1.0" preserveAspectRatio="xMidYMid meet" viewBox="23.58 16.28 175.06 175.59">

<g transform="translate(0.000000,208.000000) scale(0.100000,-0.100000)" fill="#8B5CF6" stroke="none">
<path d="M985 1910 c-352 -56 -635 -310 -726 -655 -29 -108 -31 -297 -5 -410 23 -103 89 -243 158 -337 181 -244 510 -382 809 -339 92 14 229 56 241 74 4 7 8 55 8 108 0 141 -28 222 -109 312 l-34 38 29 30 c53 56 109 82 189 87 41 2 87 0 107 -7 58 -19 125 -68 154 -111 l27 -41 -46 -67 c-51 -74 -111 -139 -181 -197 -50 -41 -59 -78 -21 -83 30 -3 152 103 218 191 344 457 187 1095 -329 1334 -142 65 -344 95 -489 73z m285 -74 c276 -59 504 -252 600 -509 63 -168 66 -401 8 -552 -6 -16 -13 -32 -14 -33 -1 -2 -19 15 -39 37 -75 82 -213 125 -326 102 -74 -16 -124 -43 -184 -102 l-50 -48 -45 15 c-45 16 -170 22 -190 9 -7 -4 -6 -14 3 -31 12 -23 19 -25 88 -27 66 -2 82 -7 133 -37 63 -38 97 -77 127 -145 16 -36 19 -62 17 -141 l-3 -97 -65 -19 c-86 -25 -270 -35 -361 -19 -207 37 -407 165 -523 334 l-38 55 20 39 c25 49 91 109 146 134 61 28 167 26 231 -5 62 -29 117 -84 146 -145 17 -35 23 -71 27 -148 l5 -102 -38 -7 c-56 -10 -119 15 -123 49 -4 33 28 106 68 157 l30 38 -20 23 -20 24 -35 -39 c-19 -21 -44 -58 -55 -81 -25 -51 -46 -146 -37 -168 3 -9 30 -28 58 -43 44 -22 62 -25 113 -22 34 3 74 10 89 17 l29 11 -4 138 c-3 120 -6 142 -27 182 -57 108 -130 167 -243 197 -56 14 -77 16 -130 6 -105 -18 -194 -71 -244 -147 -9 -14 -19 -26 -23 -26 -4 0 -17 30 -29 67 -72 221 -51 460 54 651 122 220 322 361 589 416 48 9 225 4 285 -8z"/>
<path d="M600 1257 c-102 -68 -96 -223 11 -277 82 -43 176 -11 218 73 55 111 -20 227 -147 227 -34 0 -59 -7 -82 -23z m158 -72 c26 -31 30 -90 7 -122 -20 -29 -75 -46 -107 -34 -55 21 -84 92 -58 141 29 54 117 62 158 15z"/>
<path d="M1454 1262 c-78 -49 -102 -130 -63 -209 76 -153 301 -103 301 67 0 93 -55 151 -149 157 -45 3 -65 0 -89 -15z m126 -57 c54 -28 67 -91 29 -139 -30 -38 -64 -49 -105 -36 -42 14 -64 44 -64 88 0 43 14 68 48 86 35 19 56 20 92 1z"/>
<path d="M1029 1138 c-75 -43 -103 -150 -56 -219 71 -106 203 -106 274 0 47 70 19 177 -57 220 -49 27 -114 27 -161 -1z m143 -67 c27 -24 33 -36 33 -70 0 -123 -172 -130 -192 -8 -5 32 -1 41 30 72 45 45 84 47 129 6z"/>
</g>
</svg>